<svg xmlns="http://www.w3.org/2000/svg" fill="none" viewBox="-1.2 -1.2 24 24" id="Dashboard-2--Streamline-Outlined-Expansion" height="24" width="24" style="background-color: #000000ff"><desc>Dashboard 2 Streamline Icon: https://streamlinehq.com</desc><g id="dashboard-2"><path id="Union" fill="#ffffff" d="M13.5 9.9h5.4V2.7l-5.4 0v7.2Zm-3.6 9h9v-7.2H9.9l0 7.2ZM2.7 9.9l9 0V2.7L2.7 2.7l0 7.2Zm0 9h5.4l0 -7.2H2.7l0 7.2Zm9 -1.8v-3.6h5.4v3.6h-5.4ZM4.5 8.1l0 -3.6 5.4 0v3.6H4.5Zm10.8 0V4.5l1.8 0v3.6h-1.8ZM4.5 17.1l0 -3.6h1.8v3.6H4.5Z" stroke-width="1"></path></g></svg>