<?xml version="1.0" encoding="UTF-8"?>
<svg version="1.1" xmlns="http://www.w3.org/2000/svg" width="500" height="500">
<path d="M0 0 C0.33 9.24 0.66 18.48 1 28 C3.165625 25.339375 3.165625 25.339375 5.375 22.625 C9.75 17.25 9.75 17.25 12 15 C14.74485593 14.85492305 17.38480543 14.81347577 20.125 14.875 C20.87910156 14.88402344 21.63320313 14.89304688 22.41015625 14.90234375 C24.27357254 14.9259313 26.13682593 14.96180281 28 15 C26.79618552 17.49361571 25.54571278 19.68143083 24 22 C23.34 22 22.68 22 22 22 C21.566875 22.8971875 21.566875 22.8971875 21.125 23.8125 C20 26 20 26 18 29 C17.34 29 16.68 29 16 29 C14.23537317 32.08809695 14 33.23312136 14 37 C15.60757284 39.068568 17.18482985 40.88230653 19 42.75 C19.74407104 43.53963135 19.74407104 43.53963135 20.50317383 44.34521484 C24.11472411 48.15621155 27.82988342 51.86045038 31.63671875 55.4765625 C33 57 33 57 33 59 C14.68436481 60.73292036 14.68436481 60.73292036 9.4453125 56.84375 C3 50.3423913 3 50.3423913 3 47 C2.34 47 1.68 47 1 47 C0.93941406 47.69867188 0.87882812 48.39734375 0.81640625 49.1171875 C0.73261719 50.02726562 0.64882813 50.93734375 0.5625 51.875 C0.48128906 52.77992188 0.40007812 53.68484375 0.31640625 54.6171875 C0 57 0 57 -1 59 C-3.14576637 59.02685938 -5.29162645 59.04633088 -7.4375 59.0625 C-8.63246094 59.07410156 -9.82742188 59.08570313 -11.05859375 59.09765625 C-14 59 -14 59 -15 58 C-15.09376053 56.18944975 -15.1174411 54.37522799 -15.11352539 52.56225586 C-15.11344986 51.40112778 -15.11337433 50.23999969 -15.11329651 49.04368591 C-15.10813522 47.780168 -15.10297394 46.51665009 -15.09765625 45.21484375 C-15.0962413 43.92888809 -15.09482635 42.64293243 -15.09336853 41.31800842 C-15.08954418 37.89356557 -15.07971462 34.46916491 -15.06866455 31.04473877 C-15.05844864 27.55261811 -15.05387053 24.06049066 -15.04882812 20.56835938 C-15.03809227 13.71222222 -15.02101684 6.85611313 -15 0 C-13.06325815 -0.19517554 -11.12555991 -0.38087873 -9.1875 -0.5625 C-8.10855469 -0.66691406 -7.02960938 -0.77132812 -5.91796875 -0.87890625 C-3 -1 -3 -1 0 0 Z " fill="#EAEAEA" transform="translate(331,220)"/>
<path d="M0 0 C1.21429688 -0.02578125 2.42859375 -0.0515625 3.6796875 -0.078125 C7.33172783 0.26968836 9.18385669 1.12521966 12.125 3.25 C12.455 2.26 12.785 1.27 13.125 0.25 C17.745 0.25 22.365 0.25 27.125 0.25 C27.14964513 6.3555471 27.16783371 12.46106551 27.17993164 18.56665039 C27.18497288 20.64543156 27.19180574 22.72420916 27.20043945 24.80297852 C27.21251422 27.78402586 27.21823024 30.76502649 27.22265625 33.74609375 C27.22781754 34.68150497 27.23297882 35.6169162 27.23829651 36.58067322 C27.23837204 37.44149002 27.23844757 38.30230682 27.23852539 39.18920898 C27.240746 39.95087875 27.24296661 40.71254852 27.24525452 41.49729919 C27.125 43.25 27.125 43.25 26.125 44.25 C23.93860547 44.32258946 21.74999611 44.33373783 19.5625 44.3125 C17.76619141 44.29896484 17.76619141 44.29896484 15.93359375 44.28515625 C15.00675781 44.27355469 14.07992187 44.26195312 13.125 44.25 C13.09994385 43.51362305 13.0748877 42.77724609 13.04907227 42.01855469 C12.93295727 38.67886622 12.81030082 35.33944903 12.6875 32 C12.64818359 30.84113281 12.60886719 29.68226563 12.56835938 28.48828125 C12.52646484 27.37324219 12.48457031 26.25820313 12.44140625 25.109375 C12.38641968 23.56975098 12.38641968 23.56975098 12.33032227 21.99902344 C12.15217872 19.61389113 11.79722637 17.53700501 11.125 15.25 C10.465 15.25 9.805 15.25 9.125 15.25 C9.125 14.59 9.125 13.93 9.125 13.25 C7.54176312 13.222807 5.95838938 13.20351694 4.375 13.1875 C3.49328125 13.17589844 2.6115625 13.16429687 1.703125 13.15234375 C-0.70602137 13.24359929 -2.6319138 13.36590071 -4.875 14.25 C-5.81242541 17.06227622 -6.00970844 18.83746844 -6 21.75 C-6.00257813 22.5234375 -6.00515625 23.296875 -6.0078125 24.09375 C-5.95645813 26.43447017 -5.95645813 26.43447017 -4.875 29.25 C0.02568963 30.88356321 4.98238476 30.30529694 10.125 30.25 C10.125 34.87 10.125 39.49 10.125 44.25 C-8.38866092 45.05884926 -8.38866092 45.05884926 -13.875 40.25 C-20.21609051 33.1670159 -21.48485366 27.65099764 -21.2890625 18.32421875 C-20.84567563 11.37516632 -17.09766013 7.31759082 -12.1875 2.75 C-8.13262584 0.11981135 -4.74128656 0.06014317 0 0 Z " fill="#E6E6E6" transform="translate(258.875,234.75)"/>
<path d="M0 0 C4.62 0 9.24 0 14 0 C14.03738281 1.98644531 14.07476562 3.97289062 14.11328125 6.01953125 C14.16195816 7.94574613 14.21073808 9.87195995 14.26245117 11.7980957 C14.31201319 13.7929063 14.34651133 15.78807257 14.38085938 17.78320312 C14.41630859 19.03681641 14.45175781 20.29042969 14.48828125 21.58203125 C14.51446533 22.73936768 14.54064941 23.8967041 14.56762695 25.08911133 C14.77794567 27.97431861 14.77794567 27.97431861 16.30151367 29.8894043 C19.06242293 31.69469052 21.80526255 31.1808342 25 31 C26.03042947 27.55301173 26.19794703 24.29074718 26.31640625 20.703125 C26.35830078 19.49785156 26.40019531 18.29257813 26.44335938 17.05078125 C26.48267578 15.79652344 26.52199219 14.54226562 26.5625 13.25 C26.62727539 11.34541016 26.62727539 11.34541016 26.69335938 9.40234375 C26.79939655 6.2683562 26.90019848 3.13419232 27 0 C31.62 0 36.24 0 41 0 C41.02464513 6.1055471 41.04283371 12.21106551 41.05493164 18.31665039 C41.05997288 20.39543156 41.06680574 22.47420916 41.07543945 24.55297852 C41.08751422 27.53402586 41.09323024 30.51502649 41.09765625 33.49609375 C41.10281754 34.43150497 41.10797882 35.3669162 41.11329651 36.33067322 C41.11337204 37.19149002 41.11344757 38.05230682 41.11352539 38.93920898 C41.115746 39.70087875 41.11796661 40.46254852 41.12025452 41.24729919 C41 43 41 43 40 44 C37.81360547 44.07258946 35.62499611 44.08373783 33.4375 44.0625 C31.64119141 44.04896484 31.64119141 44.04896484 29.80859375 44.03515625 C28.88175781 44.02355469 27.95492187 44.01195312 27 44 C26.67 43.34 26.34 42.68 26 42 C24.7625 42.495 24.7625 42.495 23.5 43 C17.20776379 44.79778177 12.11082984 44.44433193 6 42 C6 41.34 6 40.68 6 40 C5.34 40 4.68 40 4 40 C-1.18317351 31.43649594 -0.13901194 21.06258826 -0.0625 11.375 C-0.05798828 10.27542969 -0.05347656 9.17585937 -0.04882812 8.04296875 C-0.03717154 5.3619551 -0.01924141 2.68096994 0 0 Z " fill="#E7E7E7" transform="translate(193,235)"/>
<path d="M0 0 C1.32 0.66 2.64 1.32 4 2 C4 2.66 4 3.32 4 4 C4.66 4 5.32 4 6 4 C6 4.66 6 5.32 6 6 C6.66 6 7.32 6 8 6 C8 6.66 8 7.32 8 8 C8.66 8 9.32 8 10 8 C10.33 8.99 10.66 9.98 11 11 C10.44570312 11.39832031 9.89140625 11.79664063 9.3203125 12.20703125 C8.59585938 12.73683594 7.87140625 13.26664063 7.125 13.8125 C6.40570313 14.33457031 5.68640625 14.85664063 4.9453125 15.39453125 C1.77423785 18.01162298 0.71545946 20.34924961 0.25 24.3125 C-0.12505928 28.37235223 0.36516655 31.2140699 2 35 C2.165 35.886875 2.33 36.77375 2.5 37.6875 C4.37986258 40.58562148 5.15577044 40.41473626 8.4375 41.125 C13.6234666 42.40445745 16.48465643 44.83935365 20.125 48.5625 C20.8528772 49.3062085 20.8528772 49.3062085 21.59545898 50.06494141 C25 53.69423508 25 53.69423508 25 56 C15.41665852 57.3881629 6.75139368 57.19451573 -1.6875 51.9375 C-2.450625 51.298125 -3.21375 50.65875 -4 50 C-4 49.34 -4 48.68 -4 48 C-4.66 48 -5.32 48 -6 48 C-6 47.34 -6 46.68 -6 46 C-6.66 46 -7.32 46 -8 46 C-8.81837442 44.58671871 -9.62946219 43.16921654 -10.4375 41.75 C-10.88996094 40.96109375 -11.34242188 40.1721875 -11.80859375 39.359375 C-15.11106474 32.81939966 -14.99710864 24.90451947 -13.2109375 17.91015625 C-11.65487748 13.48548176 -10.13634239 9.55616775 -7 6 C-6.34 6 -5.68 6 -5 6 C-5 5.34 -5 4.68 -5 4 C-4.34 4 -3.68 4 -3 4 C-3 3.34 -3 2.68 -3 2 C-2.01 1.34 -1.02 0.68 0 0 Z " fill="#E4E4E4" transform="translate(142,223)"/>
<path d="M0 0 C4.62 0 9.24 0 14 0 C14.33 0.66 14.66 1.32 15 2 C15.99 1.34 16.98 0.68 18 0 C19.32 0 20.64 0 22 0 C22 4.29 22 8.58 22 13 C20.5459375 13.680625 20.5459375 13.680625 19.0625 14.375 C15.92920418 15.65786221 15.92920418 15.65786221 15 18 C14.84621148 19.95774069 14.75028537 21.92017352 14.68359375 23.8828125 C14.64169922 25.04941406 14.59980469 26.21601563 14.55664062 27.41796875 C14.49766602 29.25294922 14.49766602 29.25294922 14.4375 31.125 C14.39431641 32.35605469 14.35113281 33.58710938 14.30664062 34.85546875 C14.20031377 37.90350512 14.09963028 40.95173739 14 44 C9.38 44 4.76 44 0 44 C0 29.48 0 14.96 0 0 Z " fill="#E8E8E8" transform="translate(290,235)"/>
<path d="M0 0 C8.60628508 -0.44072015 15.51584828 -0.54128168 23 4 C23.63550781 4.350625 24.27101562 4.70125 24.92578125 5.0625 C31.29787496 8.9921852 34.43432359 15.23095892 36.375 22.3125 C37.79909171 30.04328358 37.28238752 38.29713258 33 45 C29.17397743 43.38129814 25.30598679 41.53889062 23 38 C22.69248315 34.91183778 22.81677663 31.97301977 22.96484375 28.875 C23.01093482 25.10577446 22.22077386 23.0350576 20 20 C17.32743093 17.44362958 15.17100719 15.39098091 11.63671875 14.2109375 C8.19023088 12.62810603 6.10716518 10.19973506 3.6875 7.375 C3.23310547 6.859375 2.77871094 6.34375 2.31054688 5.8125 C1.19891994 4.5487557 0.0983178 3.27532824 -1 2 C-0.67 1.34 -0.34 0.68 0 0 Z " fill="#E8E8E8" transform="translate(151,220)"/>
<path d="M0 0 C3.23048748 1.4199255 5.38242488 3.13619387 7.86328125 5.6328125 C8.58580078 6.35726562 9.30832031 7.08171875 10.05273438 7.828125 C10.79845703 8.58609375 11.54417969 9.3440625 12.3125 10.125 C13.04662109 10.85976563 13.78074219 11.59453125 14.53710938 12.3515625 C18.6676367 16.51507541 22.63311378 20.76937056 26.43847656 25.23242188 C28.03152041 27.03567977 29.70714562 28.70396631 31.4375 30.375 C34 33 34 33 34 35 C18.12453532 36.22118959 18.12453532 36.22118959 13.0234375 33.2890625 C8 28.22909091 8 28.22909091 8 25 C7.34 25 6.68 25 6 25 C6 24.34 6 23.68 6 23 C5.34 23 4.68 23 4 23 C4 22.34 4 21.68 4 21 C3.34 21 2.68 21 2 21 C2 20.34 2 19.68 2 19 C1.34 19 0.68 19 0 19 C0 18.34 0 17.68 0 17 C-0.66 17 -1.32 17 -2 17 C-2 16.34 -2 15.68 -2 15 C-2.99 14.67 -3.98 14.34 -5 14 C-7 11 -7 11 -7 8.6875 C-5.54163402 4.76814142 -3.07350975 2.81193445 0 0 Z " fill="#E0E0E0" transform="translate(160,248)"/>
<path d="M0 0 C-0.33 0.66 -0.66 1.32 -1 2 C-1.89203125 1.95359375 -2.7840625 1.9071875 -3.703125 1.859375 C-4.87359375 1.82328125 -6.0440625 1.7871875 -7.25 1.75 C-8.41015625 1.70359375 -9.5703125 1.6571875 -10.765625 1.609375 C-14.61678324 2.07449073 -15.53663818 3.12984449 -18 6 C-18.66 6 -19.32 6 -20 6 C-20 6.66 -20 7.32 -20 8 C-20.66 7.67 -21.32 7.34 -22 7 C-17.45360923 -2.28221449 -8.91471421 -0.66701543 0 0 Z " fill="#797979" transform="translate(359,235)"/>
<path d="M0 0 C-1.14541896 2.29083792 -2.35992889 3.29432988 -4.3125 4.9375 C-5.25222656 5.72833984 -5.25222656 5.72833984 -6.2109375 6.53515625 C-8.10019688 8.08203893 -10.01829141 9.57316982 -12 11 C-10.53404095 5.46193247 -5.96377539 0 0 0 Z " fill="#A1A1A1" transform="translate(252,236)"/>
</svg>
